{
  "accessors": [
    {
      "bufferView": 2,
      "componentType": 5126,
      "count": 65532,
      "max": [
        0.72790837287902832,
        -2.104588508605957,
        1.7215120792388916
      ],
      "min": [
        -0.50239300727844238,
        -3.3527429103851318,
        0.54899859428405762
      ],
      "type": "VEC3"
    },
    {
      "bufferView": 2,
      "byteOffset": 786384,
      "componentType": 5126,
      "count": 65532,
      "max": [
        0.99998444318771362,
        0.99982756376266479,
        0.99999874830245972
      ],
      "min": [
        -0.99988406896591187,
        -0.99998581409454346,
        -0.99948495626449585
      ],
      "type": "VEC3"
    },
    {
      "bufferView": 3,
      "componentType": 5126,
      "count": 65532,
      "max": [
        0.9999157190322876,
        0.99996894598007202,
        0.9999968409538269,
        1
      ],
      "min": [
        -0.99998682737350464,
        -0.99997937679290771,
        -0.99998462200164795,
        -1
      ],
      "type": "VEC4"
    },
    {
      "bufferView": 3,
      "byteOffset": 1048512,
      "componentType": 5126,
      "count": 65532,
      "max": [
        0.99215686321258545,
        0.99607843160629272,
        0.99607843160629272,
        1
      ],
      "min": [
        0,
        0,
        0,
        0
      ],
      "type": "VEC4"
    },
    {
      "bufferView": 1,
      "componentType": 5126,
      "count": 65532,
      "max": [
        0.99888414144515991,
        0.99893409013748169
      ],
      "min": [
        0.00099759630393236876,
        0.0010352680692449212
      ],
      "type": "VEC2"
    },
    {
      "bufferView": 0,
      "componentType": 5125,
      "count": 175842,
      "max": [
        65531
      ],
      "min": [
        0
      ],
      "type": "SCALAR"
    },
    {
      "bufferView": 2,
      "byteOffset": 1572768,
      "componentType": 5126,
      "count": 19111,
      "max": [
        0.72682636976242065,
        -2.104588508605957,
        1.3687436580657959
      ],
      "min": [
        -0.52507126331329346,
        -3.3448493480682373,
        0.54907321929931641
      ],
      "type": "VEC3"
    },
    {
      "bufferView": 2,
      "byteOffset": 1802100,
      "componentType": 5126,
      "count": 19111,
      "max": [
        0.99993950128555298,
        0.99998986721038818,
        0.9999992847442627
      ],
      "min": [
        -0.99998652935028076,
        -0.99995243549346924,
        -0.99731040000915527
      ],
      "type": "VEC3"
    },
    {
      "bufferView": 3,
      "byteOffset": 2097024,
      "componentType": 5126,
      "count": 19111,
      "max": [
        0.99999910593032837,
        0.9999653697013855,
        0.99998795986175537,
        1
      ],
      "min": [
        -0.99996179342269897,
        -0.99995100498199463,
        -0.99999004602432251,
        -1
      ],
      "type": "VEC4"
    },
    {
      "bufferView": 3,
      "byteOffset": 2402800,
      "componentType": 5126,
      "count": 19111,
      "max": [
        0.85098040103912354,
        0.84313726425170898,
        0.85098040103912354,
        1
      ],
      "min": [
        0,
        0,
        0,
        0
      ],
      "type": "VEC4"
    },
    {
      "bufferView": 1,
      "byteOffset": 524256,
      "componentType": 5126,
      "count": 19111,
      "max": [
        0.99878901243209839,
        0.9978032112121582
      ],
      "min": [
        0.0011012619361281395,
        0.0012425101594999433
      ],
      "type": "VEC2"
    },
    {
      "bufferView": 0,
      "byteOffset": 703368,
      "componentType": 5125,
      "count": 91545,
      "max": [
        19110
      ],
      "min": [
        0
      ],
      "type": "SCALAR"
    }
  ],
  "asset": {
    "extras": {
      "author": "3dhdscan (https://sketchfab.com/3dhdscan)",
      "license": "CC-BY-4.0 (http://creativecommons.org/licenses/by/4.0/)",
      "source": "https://sketchfab.com/models/430b9e5354484860b8b41505e9b63298",
      "title": "Fountain with three putts, Brno Lužánky"
    },
    "generator": "Sketchfab-3.19.4",
    "version": "2.0"
  },
  "bufferViews": [
    {
      "buffer": 0,
      "byteLength": 1069548,
      "byteOffset": 0,
      "name": "floatBufferViews",
      "target": 34963
    },
    {
      "buffer": 0,
      "byteLength": 677144,
      "byteOffset": 1069548,
      "byteStride": 8,
      "name": "floatBufferViews",
      "target": 34962
    },
    {
      "buffer": 0,
      "byteLength": 2031432,
      "byteOffset": 1746692,
      "byteStride": 12,
      "name": "floatBufferViews",
      "target": 34962
    },
    {
      "buffer": 0,
      "byteLength": 2708576,
      "byteOffset": 3778124,
      "byteStride": 16,
      "name": "floatBufferViews",
      "target": 34962
    }
  ],
  "buffers": [
    {
      "byteLength": 6486700,
      "uri": "scene.bin"
    }
  ],
  "images": [
    {
      "uri": "textures/kasna_luzanky_baseColor.jpeg"
    },
    {
      "uri": "textures/kasna_luzanky_normal.jpeg"
    },
    {
      "uri": "textures/kasna_luzanky_metallicRoughness.png"
    }
  ],
  "materials": [
    {
      "doubleSided": true,
      "name": "kasna_luzanky",
      "normalTexture": {
        "index": 1,
        "scale": 1,
        "texCoord": 0
      },
      "occlusionTexture": {
        "index": 2,
        "strength": 1,
        "texCoord": 0
      },
      "pbrMetallicRoughness": {
        "baseColorFactor": [
          1,
          1,
          1,
          1
        ],
        "baseColorTexture": {
          "index": 0,
          "texCoord": 0
        },
        "metallicFactor": 0,
        "roughnessFactor": 0.72389481709999992
      }
    }
  ],
  "meshes": [
    {
      "name": "kasna_luzanky_kasna_luzanky_0",
      "primitives": [
        {
          "attributes": {
            "COLOR_0": 3,
            "NORMAL": 1,
            "POSITION": 0,
            "TANGENT": 2,
            "TEXCOORD_0": 4
          },
          "indices": 5,
          "material": 0,
          "mode": 4
        }
      ]
    },
    {
      "name": "kasna_luzanky_kasna_luzanky_0",
      "primitives": [
        {
          "attributes": {
            "COLOR_0": 9,
            "NORMAL": 7,
            "POSITION": 6,
            "TANGENT": 8,
            "TEXCOORD_0": 10
          },
          "indices": 11,
          "material": 0,
          "mode": 4
        }
      ]
    }
  ],
  "nodes": [
    {
      "children": [
        1
      ],
      "name": "RootNode (gltf orientation matrix)",
      "rotation": [
        -0.70710678118654746,
        -0,
        -0,
        0.70710678118654757
      ]
    },
    {
      "children": [
        2
      ],
      "matrix": [
        -1,
        0,
        0,
        0,
        0,
        1,
        0,
        0,
        0,
        0,
        -1,
        0,
        -545.73260498046875,
        0,
        -227.05107116699219,
        1
      ],
      "name": "RootNode (model correction matrix)"
    },
    {
      "children": [
        3
      ],
      "matrix": [
        1,
        0,
        0,
        0,
        0,
        -1,
        0,
        0,
        0,
        0,
        -1,
        0,
        0,
        0,
        0,
        1
      ],
      "name": "kasna_luzanky.FBX"
    },
    {
      "children": [
        4
      ],
      "name": "RootNode"
    },
    {
      "children": [
        5,
        6
      ],
      "matrix": [
        -4.3711388730827139e-06,
        -99.999999999999901,
        0,
        0,
        99.999999999999901,
        -4.3711388730827139e-06,
        0,
        0,
        0,
        0,
        100,
        0,
        0,
        0,
        0,
        1
      ],
      "name": "kasna_luzanky"
    },
    {
      "mesh": 0,
      "name": "kasna_luzanky_kasna_luzanky_0"
    },
    {
      "mesh": 1,
      "name": "kasna_luzanky_kasna_luzanky_0"
    }
  ],
  "samplers": [
    {
      "magFilter": 9729,
      "minFilter": 9987,
      "wrapS": 10497,
      "wrapT": 10497
    }
  ],
  "scene": 0,
  "scenes": [
    {
      "name": "OSG_Scene",
      "nodes": [
        0
      ]
    }
  ],
  "textures": [
    {
      "sampler": 0,
      "source": 0
    },
    {
      "sampler": 0,
      "source": 1
    },
    {
      "sampler": 0,
      "source": 2
    }
  ]
}

